# 3ds Max Wavefront OBJ Exporter v0.97b - (c)2007 guruware
# File Created: 11.07.2017 17:28:59

#
# object Box001
#

v  -0.2500 -0.2500 0.2500
v  -0.2500 -0.2500 -0.2500
v  0.2500 -0.2500 -0.2500
v  0.2500 -0.2500 0.2500
v  -0.2500 0.2500 0.2500
v  0.2500 0.2500 0.2500
v  0.2500 0.2500 -0.2500
v  -0.2500 0.2500 -0.2500
# 8 vertices

vn 0.0000 -1.0000 -0.0000
vn 0.0000 1.0000 -0.0000
vn 0.0000 0.0000 1.0000
vn 1.0000 0.0000 -0.0000
vn 0.0000 0.0000 -1.0000
vn -1.0000 0.0000 -0.0000
# 6 vertex normals

g Box001
f 1//1 2//1 3//1 4//1 
f 5//2 6//2 7//2 8//2 
f 1//3 4//3 6//3 5//3 
f 4//4 3//4 7//4 6//4 
f 3//5 2//5 8//5 7//5 
f 2//6 1//6 5//6 8//6 
# 6 polygons

